# xmcd CD database file
#
# Track frame offsets:
#	150
#	19037
#	36600
#	51450
#	74852
#	96460
#	113495
#	127360
#	145982
#	167607
#
# Disc length: 2543 seconds
#
# Revision: 3
# Processed by: cddbd v1.5PL3 Copyright (c) Steve Scherf et al.
# Submitted via: CDex 1.51
#
DISCID=a009ed0a
DTITLE=Sorhin - I Det Glimrande Mörkrets Djup
DYEAR=1997
DGENRE=Black Metal
TTITLE0=Godhetens Fall
TTITLE1=Nar Helvetet Kallar
TTITLE2=Och Om Natten Min Sjal Dansar
TTITLE3=Svartvintras
TTITLE4=Tills Döden Er Alla Tar
TTITLE5=Åt Fanders Med Ljusets Skapelser
TTITLE6=I Skuggan Af Nattens Herre
TTITLE7=Sänd Mig En  Angel Att Dräpa
TTITLE8=Skogsgriftens Rike
TTITLE9=I Det Glimrande Mörkrets Djup
EXTD=YEAR: 1997
EXTT0=
EXTT1=
EXTT2=
EXTT3=
EXTT4=
EXTT5=
EXTT6=
EXTT7=
EXTT8=
EXTT9=
PLAYORDER=
